<?xml version="1.0" encoding="UTF-8"?>
<svg version="1.1" xmlns="http://www.w3.org/2000/svg" width="500" height="500">
<path d="M0 0 C0 33.66 0 67.32 0 102 C-8.394375 102.4125 -16.78875 102.825 -25.4375 103.25 C-72.34859296 105.73864849 -124.23117058 109.61558529 -167 131 C-167.33 176.87 -167.66 222.74 -168 270 C-201.66 270 -235.32 270 -270 270 C-270 224.89193948 -263.11537898 182.42246477 -245 141 C-244.65356445 140.2054541 -244.30712891 139.4109082 -243.95019531 138.59228516 C-235.84169934 120.23503604 -225.48042697 103.69159352 -213 88 C-212.55188965 87.43474609 -212.1037793 86.86949219 -211.64208984 86.28710938 C-195.51906935 66.14378774 -176.61287481 50.86208698 -155 37 C-153.51306641 36.02933594 -153.51306641 36.02933594 -151.99609375 35.0390625 C-126.00152104 18.92015715 -94.80336327 10.41629388 -65 5 C-63.62134766 4.74911621 -63.62134766 4.74911621 -62.21484375 4.49316406 C-41.70963052 0.89779296 -20.77556903 0 0 0 Z " fill="#245081" transform="translate(469,180)"/>
<path d="M0 0 C33.66 0 67.32 0 102 0 C102 74.47260958 79.7946167 147.46556414 27.4375 201.8125 C23.78177542 205.34430171 19.82346504 208.51477734 15.859375 211.69140625 C14.05401199 213.14901491 12.26935041 214.63299988 10.515625 216.15234375 C2.00811178 223.45770836 -7.39482987 229.25500536 -17 235 C-17.93489258 235.56267578 -17.93489258 235.56267578 -18.88867188 236.13671875 C-63.26587374 262.43058864 -117.22437665 270 -168 270 C-168 236.34 -168 202.68 -168 168 C-146.715 167.01 -146.715 167.01 -125 166 C-82.52884252 162.68440778 -40.3767246 155.87573912 -1 139 C-0.67 93.13 -0.34 47.26 0 0 Z " fill="#244F81" transform="translate(199,46)"/>
<path d="M0 0 C0 45.87 0 91.74 0 139 C-33.66 139 -67.32 139 -102 139 C-102 120.35784549 -102 120.35784549 -100.375 113.0625 C-100.19678711 112.22750977 -100.01857422 111.39251953 -99.83496094 110.53222656 C-91.64468387 73.98779236 -69.32260116 42.60084756 -39 21 C-38.42942871 20.59040039 -37.85885742 20.18080078 -37.27099609 19.75878906 C-9.48375293 0 -9.48375293 0 0 0 Z " fill="#38B5FE" transform="translate(301,311)"/>
<path d="M0 0 C33.66 0 67.32 0 102 0 C102 5.61 102 11.22 102 17 C101.34 17 100.68 17 100 17 C100.0515625 17.94359375 100.103125 18.8871875 100.15625 19.859375 C100.14621456 24.86204195 98.83587456 29.45820278 97.5 34.25 C97.23155273 35.21437988 96.96310547 36.17875977 96.68652344 37.17236328 C90.90950583 57.20132933 81.78115465 75.26424712 68 91 C67.35490479 91.7434668 67.35490479 91.7434668 66.69677734 92.50195312 C52.6504753 108.58557968 35.8604024 121.99381747 17 132.0625 C15.99598145 132.59931396 15.99598145 132.59931396 14.97167969 133.14697266 C10.01327738 135.69493818 5.41563949 137.19478684 0 139 C0 93.13 0 47.26 0 0 Z " fill="#39B5FD" transform="translate(199,46)"/>
<path d="M0 0 C0.33 0 0.66 0 1 0 C1.86195993 19.92085182 -1.7742401 39.60869567 -6 59 C-6.66 59 -7.32 59 -8 59 C-8 57.35 -8 55.7 -8 54 C-10.70012347 53.32649231 -10.70012347 53.32649231 -14 54 C-17.92022355 57.40889005 -20.77881599 61.32785432 -23 66 C-25.21004708 69.47293112 -27.57560853 72.78572736 -30.0625 76.0625 C-34.67862554 81.89253401 -34.67862554 81.89253401 -36 89 C-37.175625 88.690625 -37.175625 88.690625 -38.375 88.375 C-39.24125 88.25125 -40.1075 88.1275 -41 88 C-43.12933327 89.91232464 -43.12933327 89.91232464 -44.25 92.5625 C-46 95 -46 95 -48.8125 95.5 C-49.864375 95.665 -50.91625 95.83 -52 96 C-54.87949888 97.85967636 -57.44422223 99.88844446 -59 103 C-60.32 103 -61.64 103 -63 103 C-63 103.66 -63 104.32 -63 105 C-67.83618072 109.55105442 -72.89157874 112.5566315 -79 115 C-79.53625 115.53625 -80.0725 116.0725 -80.625 116.625 C-82.55589778 118.55589778 -84.34079135 118.55679856 -87 119 C-88.6792238 119.63437344 -90.35008418 120.29289322 -92 121 C-92.66 120.34 -93.32 119.68 -94 119 C-93.00742188 118.52691406 -92.01484375 118.05382812 -90.9921875 117.56640625 C-53.57875698 99.46956655 -21.39868476 70.08326451 -7.46459961 30.07666016 C-4.18564053 20.25935571 -1.17192202 10.31291381 0 0 Z " fill="#094C86" transform="translate(299,63)"/>
<path d="M0 0 C0.495 1.485 0.495 1.485 1 3 C0.67 3.66 0.34 4.32 0 5 C0.165 5.66 0.33 6.32 0.5 7 C1 9 1 9 0 11 C-2.64860427 11.59355614 -5.29197322 11.74209269 -8 12 C-7.505 12.99 -7.505 12.99 -7 14 C-6.9603287 15.66619446 -6.95615553 17.33391013 -7 19 C-8.485 18.505 -8.485 18.505 -10 18 C-9.67 17.34 -9.34 16.68 -9 16 C-9.66 16 -10.32 16 -11 16 C-11 16.66 -11 17.32 -11 18 C-11.928125 18.0928125 -11.928125 18.0928125 -12.875 18.1875 C-15.22892349 18.8229085 -15.22892349 18.8229085 -16.25 21.3125 C-17.17919931 24.17709932 -17.17919931 24.17709932 -17 28 C-19.475 27.01 -19.475 27.01 -22 26 C-22 26.66 -22 27.32 -22 28 C-22.99 28.495 -22.99 28.495 -24 29 C-24.433125 29.7425 -24.86625 30.485 -25.3125 31.25 C-27 34 -27 34 -29.6875 36.625 C-32.34880834 38.80575932 -32.34880834 38.80575932 -32 42 C-32 42.66 -32 43.32 -32 44 C-32.763125 44.061875 -33.52625 44.12375 -34.3125 44.1875 C-37.13023361 44.75181009 -37.13023361 44.75181009 -38.5625 47.0625 C-39.374595 48.72199848 -40.17402826 50.38827314 -40.9296875 52.07421875 C-41.26226562 52.79222656 -41.59484375 53.51023437 -41.9375 54.25 C-42.38416016 55.27867187 -42.38416016 55.27867187 -42.83984375 56.328125 C-44 58 -44 58 -46.12890625 58.734375 C-46.74636719 58.82203125 -47.36382812 58.9096875 -48 59 C-47.67 59.99 -47.34 60.98 -47 62 C-47.6875 65.0625 -47.6875 65.0625 -49 68 C-49.97453125 68.45052734 -49.97453125 68.45052734 -50.96875 68.91015625 C-53.63501516 70.34071006 -53.92837162 71.52876852 -54.8125 74.375 C-55.19341797 75.53128906 -55.19341797 75.53128906 -55.58203125 76.7109375 C-56.03167033 79.17344686 -55.78898188 80.64915604 -55 83 C-56.485 83.495 -56.485 83.495 -58 84 C-58.33 84.99 -58.66 85.98 -59 87 C-58.01 87 -57.02 87 -56 87 C-56.33 87.66 -56.66 88.32 -57 89 C-57.66 88.67 -58.32 88.34 -59 88 C-59.66 89.32 -60.32 90.64 -61 92 C-61.66 91.67 -62.32 91.34 -63 91 C-63.95024979 94.69541586 -63.95024979 97.30458414 -63 101 C-63.99 101.495 -63.99 101.495 -65 102 C-64.67 103.65 -64.34 105.3 -64 107 C-64.763125 107.165 -65.52625 107.33 -66.3125 107.5 C-69.84626531 109.47233413 -70.32399767 111.42239332 -71.6171875 115.125 C-72.21718778 117.07987079 -72.21718778 117.07987079 -71 119 C-71.9375 121.125 -71.9375 121.125 -73 123 C-73.99 122.67 -74.98 122.34 -76 122 C-67.55880154 89.01389967 -52.14874698 58.59023941 -31 32 C-30.55188965 31.43474609 -30.1037793 30.86949219 -29.64208984 30.28710938 C-20.90279942 19.3686628 -11.14546979 8.49683153 0 0 Z " fill="#134676" transform="translate(287,236)"/>
<path d="M0 0 C1.65 0 3.3 0 5 0 C5 0.66 5 1.32 5 2 C4.01 2.33 3.02 2.66 2 3 C2 4.65 2 6.3 2 8 C1.01 8.495 1.01 8.495 0 9 C0.04125 10.2375 0.0825 11.475 0.125 12.75 C0.14288152 16.14152916 -0.4437175 17.99118717 -2 21 C-1.69621948 23.68993053 -1.69621948 23.68993053 -1 26 C-0.67 25.34 -0.34 24.68 0 24 C1.9375 23.4375 1.9375 23.4375 4 23 C4.66 22.67 5.32 22.34 6 22 C4.47613825 27.01977988 2.69608082 31.7304519 0.48730469 36.49365234 C-3.65367127 45.47742753 -6.06404264 54.32021321 -8 64 C-8.22558594 65.08667969 -8.45117188 66.17335938 -8.68359375 67.29296875 C-9.14024657 69.52584357 -9.58166307 71.75969563 -10 74 C-10.33 74 -10.66 74 -11 74 C-11.15272656 66.31182063 -10.76288488 58.82378763 -9.875 51.1875 C-9.74810791 50.08817139 -9.62121582 48.98884277 -9.49047852 47.85620117 C-7.51280739 31.87943577 -4.76432532 15.38717508 0 0 Z " fill="#104776" transform="translate(210,360)"/>
<path d="M0 0 C0.33 0 0.66 0 1 0 C1 45.87 1 91.74 1 139 C-32.66 139 -66.32 139 -101 139 C-101 123 -101 123 -100 118 C-99.67 118 -99.34 118 -99 118 C-98.67 124.27 -98.34 130.54 -98 137 C-49.49 137.495 -49.49 137.495 0 138 C0 92.46 0 46.92 0 0 Z " fill="#56A1CA" transform="translate(300,311)"/>
<path d="M0 0 C0.33 0 0.66 0 1 0 C1.86195993 19.92085182 -1.7742401 39.60869567 -6 59 C-6.66 59 -7.32 59 -8 59 C-8 57.35 -8 55.7 -8 54 C-9.65 54 -11.3 54 -13 54 C-13.125 50.625 -13.125 50.625 -13 47 C-12.34 46.34 -11.68 45.68 -11 45 C-9.85652394 41.56957183 -9.04016337 38.32015942 -8.58984375 34.73046875 C-7.97216603 30.82396399 -6.88617864 27.23088976 -5.625 23.5 C-3.09561344 15.75896027 -1.41680524 8.0170443 0 0 Z " fill="#0A467B" transform="translate(299,63)"/>
<path d="M0 0 C1.36898437 0.01353516 1.36898437 0.01353516 2.765625 0.02734375 C3.74789062 0.04474609 3.74789062 0.04474609 4.75 0.0625 C4.75 0.3925 4.75 0.7225 4.75 1.0625 C3.85796875 1.18367187 2.9659375 1.30484375 2.046875 1.4296875 C0.87640625 1.59726563 -0.2940625 1.76484375 -1.5 1.9375 C-2.66015625 2.09992188 -3.8203125 2.26234375 -5.015625 2.4296875 C-7.86756961 2.98767666 -9.72401283 3.73244481 -12.25 5.0625 C-13.24 5.0625 -14.23 5.0625 -15.25 5.0625 C-15.25 4.4025 -15.25 3.7425 -15.25 3.0625 C-16.24 3.3925 -17.23 3.7225 -18.25 4.0625 C-19.68679032 4.10766433 -21.12551946 4.10114149 -22.5625 4.0625 C-26.70063788 4.01459102 -30.75065941 4.22312569 -34.875 4.5625 C-42.6763694 5.17251897 -50.4319274 5.15388007 -58.25 5.0625 C-59.08587832 10.86414707 -59.38913647 16.46756685 -59.36352539 22.32421875 C-59.36374443 23.65733345 -59.36374443 23.65733345 -59.3639679 25.01737976 C-59.36327631 27.9282788 -59.35551951 30.83911227 -59.34765625 33.75 C-59.34578939 35.77880824 -59.34436675 37.80761693 -59.34336853 39.83642578 C-59.33956447 45.15628318 -59.32975235 50.47611294 -59.31866455 55.79595947 C-59.3084049 61.23245876 -59.30386118 66.66896255 -59.29882812 72.10546875 C-59.28812807 82.75782459 -59.27107718 93.41015999 -59.25 104.0625 C-55.62 104.0625 -51.99 104.0625 -48.25 104.0625 C-48.25 104.3925 -48.25 104.7225 -48.25 105.0625 C-52.54 105.0625 -56.83 105.0625 -61.25 105.0625 C-61.25 71.4025 -61.25 37.7425 -61.25 3.0625 C-39.965 2.0725 -39.965 2.0725 -18.25 1.0625 C-4.75 -0.0625 -4.75 -0.0625 0 0 Z " fill="#425576" transform="translate(92.25,210.9375)"/>
<path d="M0 0 C0 33.66 0 67.32 0 102 C-4.95 102 -9.9 102 -15 102 C-15 101.67 -15 101.34 -15 101 C-14.30132812 100.95101562 -13.60265625 100.90203125 -12.8828125 100.8515625 C-11.51769531 100.73941406 -11.51769531 100.73941406 -10.125 100.625 C-9.22007812 100.55539062 -8.31515625 100.48578125 -7.3828125 100.4140625 C-4.82058097 100.20431868 -4.82058097 100.20431868 -3 98 C-1.19804708 87.59318786 -1.86981808 76.53797893 -1.90234375 66.01171875 C-1.90421329 64.21425923 -1.90563465 62.4167992 -1.90663147 60.61933899 C-1.9104145 55.93249049 -1.92020782 51.24567394 -1.93133545 46.55883789 C-1.94164114 41.75863069 -1.94614854 36.95841824 -1.95117188 32.15820312 C-1.96183469 22.77212153 -1.97885925 13.38606344 -2 4 C-7.57630771 2.24260719 -7.57630771 2.24260719 -13.3125 2.3125 C-18.24741241 2.94926289 -23.15913841 3.29211444 -28.125 3.5625 C-29.2528894 3.62787964 -29.2528894 3.62787964 -30.40356445 3.69458008 C-35.27649977 3.96088111 -40.11987043 4.03873119 -45 4 C-44.67 3.34 -44.34 2.68 -44 2 C-41.35473633 1.58935547 -41.35473633 1.58935547 -37.83203125 1.3671875 C-36.54490234 1.28339844 -35.25777344 1.19960937 -33.93164062 1.11328125 C-33.25335205 1.07412598 -32.57506348 1.0349707 -31.8762207 0.99462891 C-29.86540859 0.87806698 -27.85552118 0.74588372 -25.84570312 0.61328125 C-17.17969177 0.07352968 -8.7270871 0 0 0 Z " fill="#3D4D6E" transform="translate(469,180)"/>
<path d="M0 0 C0.99 0.33 1.98 0.66 3 1 C2.32553588 6.11555094 0.1737301 10.5343221 -1.9375 15.1875 C-2.32993896 16.05793945 -2.72237793 16.92837891 -3.12670898 17.82519531 C-7.25956149 26.82783486 -12.0425751 35.43058911 -17 44 C-17.99 44 -18.98 44 -20 44 C-20 42.68 -20 41.36 -20 40 C-20.061875 38.7625 -20.061875 38.7625 -20.125 37.5 C-19.99071567 34.81431331 -19.35786212 33.29139233 -18 31 C-17.34 31 -16.68 31 -16 31 C-16 31.66 -16 32.32 -16 33 C-15.01 32.505 -15.01 32.505 -14 32 C-14 31.34 -14 30.68 -14 30 C-13 29 -12 28 -11 27 C-10.67 26.01 -10.34 25.02 -10 24 C-10.66 24 -11.32 24 -12 24 C-12 20.66666667 -12 17.33333333 -12 14 C-11.4225 14.185625 -10.845 14.37125 -10.25 14.5625 C-7.69606643 15.2238169 -7.69606643 15.2238169 -4 14 C-3.34 11.36 -2.68 8.72 -2 6 C-1.34 6 -0.68 6 0 6 C-0.185625 5.195625 -0.37125 4.39125 -0.5625 3.5625 C-0.706875 2.716875 -0.85125 1.87125 -1 1 C-0.67 0.67 -0.34 0.34 0 0 Z " fill="#0C467C" transform="translate(276,163)"/>
<path d="M0 0 C0 45.54 0 91.08 0 138 C-0.33 138 -0.66 138 -1 138 C-1.33 93.78 -1.66 49.56 -2 4 C-3.98 4.66 -5.96 5.32 -8 6 C-9.99369031 6.36920191 -11.99279077 6.71325582 -14 7 C-10.71506233 4.14353246 -4.53347244 0 0 0 Z " fill="#43B2EF" transform="translate(300,311)"/>
<path d="M0 0 C0.33 0 0.66 0 1 0 C1.33 6.27 1.66 12.54 2 19 C34.01 19.33 66.02 19.66 99 20 C99 20.33 99 20.66 99 21 C66 21 33 21 -1 21 C-1 5 -1 5 0 0 Z " fill="#57B1E6" transform="translate(200,429)"/>
<path d="M0 0 C-1.61677215 5.26754798 -4.96831922 9.16541112 -8.3125 13.4375 C-8.88162109 14.17548828 -9.45074219 14.91347656 -10.03710938 15.67382812 C-13.27490843 19.85583035 -16.58720973 23.95971734 -20 28 C-20.33 27.01 -20.66 26.02 -21 25 C-20.34 24.34 -19.68 23.68 -19 23 C-18.31475426 20.18111955 -18.31475426 20.18111955 -17.875 17 C-17.70742187 15.9275 -17.53984375 14.855 -17.3671875 13.75 C-16.95588394 11.13199984 -16.95588394 11.13199984 -17 9 C-15.68 9.33 -14.36 9.66 -13 10 C-12.67 9.34 -12.34 8.68 -12 8 C-10.68 8.33 -9.36 8.66 -8 9 C-7.938125 8.2575 -7.87625 7.515 -7.8125 6.75 C-6.70929735 3.01608332 -4.1317986 0 0 0 Z " fill="#164470" transform="translate(257,208)"/>
<path d="M0 0 C-3.34746542 2.71618162 -6.99130935 4.61633114 -10.8125 6.5625 C-17.7906668 10.18966239 -24.27808752 14.35496249 -30.7578125 18.80078125 C-33.46029963 20.63391409 -36.18011836 22.3559558 -39 24 C-39.33 22.02 -39.66 20.04 -40 18 C-38.02253397 17.26919734 -36.01927511 16.60578253 -34 16 C-33.34 16.33 -32.68 16.66 -32 17 C-32 16.34 -32 15.68 -32 15 C-30.35 14.34 -28.7 13.68 -27 13 C-27 12.34 -27 11.68 -27 11 C-25.02 10.67 -23.04 10.34 -21 10 C-21 9.34 -21 8.68 -21 8 C-20.236875 7.7525 -19.47375 7.505 -18.6875 7.25 C-15.91859718 6.21947571 -15.91859718 6.21947571 -14.5 4 C-10.86164347 -0.85114204 -5.50653896 -0.18666234 0 0 Z " fill="#0E5089" transform="translate(296,312)"/>
<path d="M0 0 C1.17909305 3.53727915 0.74355656 4.67566167 -0.29296875 8.19140625 C-0.59396484 9.21943359 -0.89496094 10.24746094 -1.20507812 11.30664062 C-1.52927734 12.38107422 -1.85347656 13.45550781 -2.1875 14.5625 C-2.64479492 16.13354492 -2.64479492 16.13354492 -3.11132812 17.73632812 C-5.06222145 24.3170144 -7.32420582 30.67948321 -10 37 C-10.66 35.68 -11.32 34.36 -12 33 C-11.34 33 -10.68 33 -10 33 C-10 28.71 -10 24.42 -10 20 C-9.34 20 -8.68 20 -8 20 C-8.33 18.02 -8.66 16.04 -9 14 C-8.37351562 13.76152344 -7.74703125 13.52304688 -7.1015625 13.27734375 C-4.42771551 11.65216166 -4.18504925 10.53430718 -3.375 7.5625 C-2.51203627 4.48121185 -1.81978731 2.72968097 0 0 Z " fill="#09447A" transform="translate(290,127)"/>
<path d="M0 0 C0 0.33 0 0.66 0 1 C-1.98 1 -3.96 1 -6 1 C-6.33 3.31 -6.66 5.62 -7 8 C-9.64 7.67 -12.28 7.34 -15 7 C-15 6.34 -15 5.68 -15 5 C-15.99 4.67 -16.98 4.34 -18 4 C-18.33 4.99 -18.66 5.98 -19 7 C-21.5625 8.1875 -21.5625 8.1875 -24 9 C-24.495 8.195625 -24.495 8.195625 -25 7.375 C-26.85773619 5.75517004 -26.85773619 5.75517004 -28.83984375 6.31640625 C-30.22568473 6.72673905 -31.60178264 7.17172683 -32.96484375 7.65234375 C-35.59487212 8.10161923 -36.70809031 7.25037701 -39 6 C-34.79190404 5.1862674 -30.58348235 4.37423172 -26.375 3.5625 C-24.59029297 3.21735352 -24.59029297 3.21735352 -22.76953125 2.86523438 C-21.61582031 2.64287109 -20.46210938 2.42050781 -19.2734375 2.19140625 C-17.68668213 1.88505249 -17.68668213 1.88505249 -16.06787109 1.57250977 C-10.6029078 0.55266742 -5.57769555 -0.11155391 0 0 Z M-24 5 C-23.67 5.66 -23.34 6.32 -23 7 C-22.67 6.34 -22.34 5.68 -22 5 C-22.66 5 -23.32 5 -24 5 Z " fill="#32527D" transform="translate(423,183)"/>
<path d="M0 0 C0 3.53986194 -0.58152803 4.49515403 -3 7 C-4.32 7 -5.64 7 -7 7 C-7 7.66 -7 8.32 -7 9 C-11.83618072 13.55105442 -16.89157874 16.5566315 -23 19 C-23.53625 19.53625 -24.0725 20.0725 -24.625 20.625 C-26.55589778 22.55589778 -28.34079135 22.55679856 -31 23 C-32.6792238 23.63437344 -34.35008418 24.29289322 -36 25 C-36.66 24.34 -37.32 23.68 -38 23 C-37.00742188 22.52691406 -36.01484375 22.05382812 -34.9921875 21.56640625 C-22.48380017 15.51366084 -10.97506558 8.56055115 0 0 Z " fill="#0D518A" transform="translate(243,159)"/>
<path d="M0 0 C-0.66 1.32 -1.32 2.64 -2 4 C-2.94875 3.649375 -3.8975 3.29875 -4.875 2.9375 C-8.75400884 1.8467688 -11.89565715 2.12968157 -15.85546875 2.640625 C-19.93928468 3.10734682 -24.02164308 3.33907685 -28.125 3.5625 C-29.2528894 3.62787964 -29.2528894 3.62787964 -30.40356445 3.69458008 C-35.27649977 3.96088111 -40.11987043 4.03873119 -45 4 C-44.67 3.34 -44.34 2.68 -44 2 C-41.35473633 1.58935547 -41.35473633 1.58935547 -37.83203125 1.3671875 C-36.54490234 1.28339844 -35.25777344 1.19960937 -33.93164062 1.11328125 C-33.25335205 1.07412598 -32.57506348 1.0349707 -31.8762207 0.99462891 C-29.86540859 0.87806698 -27.85552118 0.74588372 -25.84570312 0.61328125 C-17.21251251 0.07557388 -8.64770241 -0.10612745 0 0 Z " fill="#3E5479" transform="translate(469,180)"/>
<path d="M0 0 C1.16660156 0.04833984 2.33320313 0.09667969 3.53515625 0.14648438 C5.37013672 0.2305957 5.37013672 0.2305957 7.2421875 0.31640625 C9.08876953 0.3947168 9.08876953 0.3947168 10.97265625 0.47460938 C14.02107338 0.60458065 17.069187 0.73955644 20.1171875 0.87890625 C20.1171875 1.20890625 20.1171875 1.53890625 20.1171875 1.87890625 C19.03002441 1.92901855 17.94286133 1.97913086 16.82275391 2.03076172 C12.69600119 2.22254189 8.56964696 2.4220153 4.44335938 2.62353516 C2.67490106 2.70888916 0.90634752 2.79229785 -0.86230469 2.87353516 C-10.89790471 3.33592628 -20.85913032 3.95088982 -30.82870483 5.224823 C-35.55114723 5.81186713 -40.12257482 5.95823243 -44.8828125 5.87890625 C-44.5528125 5.21890625 -44.2228125 4.55890625 -43.8828125 3.87890625 C-41.22609934 3.49718688 -38.65298969 3.24213861 -35.98046875 3.0625 C-34.79111977 2.97042015 -34.79111977 2.97042015 -33.57774353 2.8764801 C-31.03418479 2.68081452 -28.48991815 2.49790691 -25.9453125 2.31640625 C-23.40446617 2.12951934 -20.86388316 1.93992531 -18.32359314 1.74562073 C-16.7402584 1.62509426 -15.15656346 1.50919554 -13.57252502 1.39830017 C-8.73131395 1.03704011 -4.88035482 -0.21321939 0 0 Z " fill="#385174" transform="translate(432.8828125,281.12109375)"/>
<path d="M0 0 C0.66 0.66 1.32 1.32 2 2 C-4.16340529 7.80085203 -10.88650381 12.43550661 -18 17 C-18.33 16.34 -18.66 15.68 -19 15 C-18.34 14.67 -17.68 14.34 -17 14 C-17.66 12.68 -18.32 11.36 -19 10 C-17.68 10 -16.36 10 -15 10 C-12.86196946 9.92393164 -12.86196946 9.92393164 -11 9 C-10.29788106 7.34795544 -9.63028587 5.68076231 -9 4 C-5.86650268 2.95550089 -5.01031744 3.06576355 -2 4 C-1.34 2.68 -0.68 1.36 0 0 Z " fill="#1E4772" transform="translate(211,257)"/>
<path d="M0 0 C0.66 0 1.32 0 2 0 C0.73791071 3.90704198 -0.66121202 7.73559493 -2.15771484 11.55859375 C-5.16469557 19.28598817 -7.40803326 26.84466159 -9 35 C-9.33 35 -9.66 35 -10 35 C-10.02687279 33.18757948 -10.04633715 31.37504767 -10.0625 29.5625 C-10.07410156 28.55316406 -10.08570313 27.54382813 -10.09765625 26.50390625 C-10 24 -10 24 -9 23 C-8.76924918 21.65252916 -8.58846937 20.29622435 -8.4375 18.9375 C-8.293125 17.638125 -8.14875 16.33875 -8 15 C-7.01 15 -6.02 15 -5 15 C-5 12.69 -5 10.38 -5 8 C-4.34 7.67 -3.68 7.34 -3 7 C-2.34444881 4.47266765 -2.34444881 4.47266765 -2 2 C-1.34 2 -0.68 2 0 2 C0 1.34 0 0.68 0 0 Z " fill="#054E89" transform="translate(211,389)"/>
<path d="M0 0 C0.66 0.99 1.32 1.98 2 3 C-11.55626701 18.23147111 -11.55626701 18.23147111 -19 24 C-19.66 24 -20.32 24 -21 24 C-19.55424733 20.6265771 -17.7950914 18.38404854 -15 16 C-14.29875 15.855625 -13.5975 15.71125 -12.875 15.5625 C-12.25625 15.376875 -11.6375 15.19125 -11 15 C-10.31867549 13.33927151 -9.65257873 11.672233 -9 10 C-8.37609375 9.70222656 -7.7521875 9.40445313 -7.109375 9.09765625 C-4.51255775 7.7463495 -3.70718549 6.38459723 -2.25 3.875 C-1.82203125 3.15054688 -1.3940625 2.42609375 -0.953125 1.6796875 C-0.63859375 1.12539062 -0.3240625 0.57109375 0 0 Z " fill="#1D446E" transform="translate(234,234)"/>
<path d="M0 0 C-3.48187753 2.32125169 -6.87171039 3.15122685 -10.875 4.125 C-11.58269531 4.30675781 -12.29039063 4.48851562 -13.01953125 4.67578125 C-16.74802173 5.59922489 -20.1557375 6.22613309 -24 6 C-24.33 4.68 -24.66 3.36 -25 2 C-22.31581667 0.65790834 -20.88064523 1.36766324 -18 2 C-14.36056163 2 -11.11353415 1.2176589 -7.5703125 0.4375 C-4.9940609 -0.00101091 -2.60767485 -0.07477204 0 0 Z " fill="#315179" transform="translate(126,303)"/>
<path d="M0 0 C0.66 0 1.32 0 2 0 C0.3341708 6.16356805 -2.87805286 11.48259656 -6 17 C-7.0625 15.1875 -7.0625 15.1875 -8 13 C-7 10 -7 10 -5.5 8.5625 C-3.75814029 6.74806281 -3.42144987 5.44440923 -3 3 C-2.34 3 -1.68 3 -1 3 C-0.67 2.01 -0.34 1.02 0 0 Z " fill="#14436C" transform="translate(269,183)"/>
<path d="M0 0 C0 0.66 0 1.32 0 2 C-18.23935091 9.40973631 -18.23935091 9.40973631 -25 9 C-22.36041882 7.24027922 -20.35251231 6.30410254 -17.40234375 5.2734375 C-16.07686523 4.809375 -16.07686523 4.809375 -14.72460938 4.3359375 C-13.80486328 4.01882812 -12.88511719 3.70171875 -11.9375 3.375 C-10.55208008 2.88773438 -10.55208008 2.88773438 -9.13867188 2.390625 C-2.26311384 0 -2.26311384 0 0 0 Z " fill="#27496F" transform="translate(193,188)"/>
<path d="M0 0 C-0.34339653 2.57547398 -0.60006716 3.68894113 -2.6875 5.3125 C-5.72203131 6.21465796 -7.94880471 5.69345348 -11 5 C-4.83050847 -1.61016949 -4.83050847 -1.61016949 0 0 Z " fill="#1D4A78" transform="translate(319,217)"/>
<path d="M0 0 C0.99 0.33 1.98 0.66 3 1 C2.34496718 5.05819183 1.05440879 8.53971282 -0.5625 12.3125 C-1.01753906 13.38113281 -1.47257812 14.44976562 -1.94140625 15.55078125 C-2.46541016 16.76314453 -2.46541016 16.76314453 -3 18 C-3.33 18 -3.66 18 -4 18 C-3.85831863 16.56208484 -3.71148957 15.1246763 -3.5625 13.6875 C-3.48128906 12.88699219 -3.40007812 12.08648437 -3.31640625 11.26171875 C-3 9 -3 9 -2 6 C-1.34 6 -0.68 6 0 6 C-0.2784375 4.7934375 -0.2784375 4.7934375 -0.5625 3.5625 C-0.706875 2.716875 -0.85125 1.87125 -1 1 C-0.67 0.67 -0.34 0.34 0 0 Z " fill="#12426E" transform="translate(276,163)"/>
<path d="M0 0 C-16.2666868 7.12965421 -16.2666868 7.12965421 -24 5 C-20.75505307 3.9626003 -17.50340596 2.94802761 -14.25 1.9375 C-13.32960938 1.64294922 -12.40921875 1.34839844 -11.4609375 1.04492188 C-10.57148438 0.77099609 -9.68203125 0.49707031 -8.765625 0.21484375 C-7.94868164 -0.04176025 -7.13173828 -0.29836426 -6.29003906 -0.56274414 C-3.82131929 -1.03411697 -2.3580946 -0.79786936 0 0 Z " fill="#324D73" transform="translate(384,191)"/>
<path d="M0 0 C0.66 0.33 1.32 0.66 2 1 C0.33784732 2.33895632 -1.32963607 3.67130142 -3 5 C-3.5775 5.556875 -4.155 6.11375 -4.75 6.6875 C-8.2576768 8.7336448 -12.0019774 8.75225928 -16 9 C-12.82117052 6.45079375 -9.50731355 4.58846828 -5.875 2.75 C-4.82054687 2.20859375 -3.76609375 1.6671875 -2.6796875 1.109375 C-1.79539062 0.74328125 -0.91109375 0.3771875 0 0 Z " fill="#274B72" transform="translate(335,206)"/>
<path d="M0 0 C0.89203125 0.00902344 1.7840625 0.01804687 2.703125 0.02734375 C3.37859375 0.03894531 4.0540625 0.05054688 4.75 0.0625 C4.75 0.3925 4.75 0.7225 4.75 1.0625 C1.00239331 1.76350082 -2.74836085 2.44593987 -6.5 3.125 C-7.56347656 3.32416016 -8.62695312 3.52332031 -9.72265625 3.72851562 C-11.25986328 4.00405273 -11.25986328 4.00405273 -12.828125 4.28515625 C-13.77075195 4.45797119 -14.71337891 4.63078613 -15.68457031 4.80883789 C-18.20177234 5.05773139 -19.86780887 4.84921127 -22.25 4.0625 C-19.11843697 1.97479131 -17.93698814 1.75616683 -14.3125 1.5 C-10.75107337 1.24005163 -10.75107337 1.24005163 -7.26171875 0.5390625 C-4.79275677 -0.04581781 -2.53406328 -0.03334294 0 0 Z " fill="#304E75" transform="translate(383.25,286.9375)"/>
<path d="M0 0 C0.33 0 0.66 0 1 0 C1.10826289 2.4178712 1.18739789 4.83087556 1.25 7.25 C1.28351563 7.93191406 1.31703125 8.61382812 1.3515625 9.31640625 C1.4215705 12.92181813 1.29151719 14.64068812 -1.015625 17.484375 C-1.99789063 18.23460937 -1.99789063 18.23460937 -3 19 C-2.27637073 12.60794144 -1.19656638 6.31972924 0 0 Z " fill="#0D5388" transform="translate(299,63)"/>
<path d="M0 0 C1.5 1.375 1.5 1.375 3 3 C3 3.66 3 4.32 3 5 C4.65 5 6.3 5 8 5 C8 5.33 8 5.66 8 6 C0.94546999 7.20443195 -5.83437211 8.28100502 -13 8 C-13 7.67 -13 7.34 -13 7 C-9.04 6.34 -5.08 5.68 -1 5 C-0.67 3.35 -0.34 1.7 0 0 Z " fill="#345177" transform="translate(88,305)"/>
<path d="M0 0 C0.33 0.66 0.66 1.32 1 2 C0.0625 4.625 0.0625 4.625 -1 7 C-1.99 7 -2.98 7 -4 7 C-4 7.66 -4 8.32 -4 9 C-4.66 9 -5.32 9 -6 9 C-6.625 7.1875 -6.625 7.1875 -7 5 C-5 2 -5 2 -2.9375 1.375 C-2.298125 1.25125 -1.65875 1.1275 -1 1 C-0.67 0.67 -0.34 0.34 0 0 Z " fill="#06487F" transform="translate(215,382)"/>
<path d="M0 0 C2.97 0.33 5.94 0.66 9 1 C6.35478068 3.64521932 3.33828651 4.44542519 -0.125 5.625 C-1.11306641 5.96917969 -1.11306641 5.96917969 -2.12109375 6.3203125 C-3.74561226 6.88536242 -5.37257971 7.44336277 -7 8 C-7 7.34 -7 6.68 -7 6 C-4.69 5.01 -2.38 4.02 0 3 C0 2.01 0 1.02 0 0 Z " fill="#2D4B77" transform="translate(151,290)"/>
<path d="M0 0 C-1.98 2.31 -3.96 4.62 -6 7 C-6.66 6.34 -7.32 5.68 -8 5 C-7.34 5 -6.68 5 -6 5 C-6 4.34 -6 3.68 -6 3 C-6.66 3 -7.32 3 -8 3 C-8 2.01 -8 1.02 -8 0 C-2.25 -1.125 -2.25 -1.125 0 0 Z " fill="#084B85" transform="translate(232,361)"/>
<path d="M0 0 C0.66 0 1.32 0 2 0 C2 0.99 2 1.98 2 3 C2.99 2.67 3.98 2.34 5 2 C5 2.66 5 3.32 5 4 C6.32 4.33 7.64 4.66 9 5 C7.73542969 5.09087891 7.73542969 5.09087891 6.4453125 5.18359375 C5.34960938 5.26738281 4.25390625 5.35117187 3.125 5.4375 C1.48917969 5.55931641 1.48917969 5.55931641 -0.1796875 5.68359375 C-2.94728971 5.83001703 -2.94728971 5.83001703 -5 7 C-4.67 5.68 -4.34 4.36 -4 3 C-2.68 2.67 -1.36 2.34 0 2 C0 1.34 0 0.68 0 0 Z " fill="#2E5285" transform="translate(392,280)"/>
<path d="M0 0 C1.32 0.33 2.64 0.66 4 1 C5.25 4.0625 5.25 4.0625 6 7 C4.68 6.67 3.36 6.34 2 6 C2 6.99 2 7.98 2 9 C1.34 9 0.68 9 0 9 C0 6.03 0 3.06 0 0 Z " fill="#0F487F" transform="translate(240,217)"/>
<path d="M0 0 C0.66 0.99 1.32 1.98 2 3 C1.10959915 5.48374973 0.18264344 7.6642792 -1 10 C-1.556875 11.134375 -2.11375 12.26875 -2.6875 13.4375 C-3.120625 14.283125 -3.55375 15.12875 -4 16 C-5 14 -5 14 -4.00390625 10.7421875 C-3.53110016 9.4502948 -3.05028031 8.16131362 -2.5625 6.875 C-2.31951172 6.21628906 -2.07652344 5.55757813 -1.82617188 4.87890625 C-1.22421679 3.25008662 -0.61297588 1.62470425 0 0 Z " fill="#16426B" transform="translate(219,333)"/>
<path d="M0 0 C0.66 0.66 1.32 1.32 2 2 C0.07776117 7.1596937 -1.80186938 10.25572134 -6 14 C-4.16508812 9.25981099 -2.08058541 4.63586749 0 0 Z " fill="#06548F" transform="translate(289,100)"/>
<path d="M0 0 C0.66 0.33 1.32 0.66 2 1 C4.00800456 0.71887936 6.01014051 0.38932033 8 0 C7.6875 1.9375 7.6875 1.9375 7 4 C3.37673261 5.2077558 2.35853631 4.54311128 -1 3 C-0.67 2.01 -0.34 1.02 0 0 Z " fill="#154A80" transform="translate(202,257)"/>
<path d="M0 0 C1.32 0.66 2.64 1.32 4 2 C1.25 6.875 1.25 6.875 -1 8 C-1.625 5.6875 -1.625 5.6875 -2 3 C-1.34 2.01 -0.68 1.02 0 0 Z " fill="#39AEF3" transform="translate(260,137)"/>
<path d="M0 0 C1.37095624 3.69037278 0.60010967 5.70883835 -0.9375 9.25 C-1.31777344 10.14203125 -1.69804687 11.0340625 -2.08984375 11.953125 C-2.39019531 12.62859375 -2.69054687 13.3040625 -3 14 C-3.66 14 -4.32 14 -5 14 C-4.34580901 8.93001981 -2.1453591 4.58009223 0 0 Z " fill="#41ACEF" transform="translate(214,386)"/>
<path d="M0 0 C0.33 0 0.66 0 1 0 C1.09038099 5.15171623 0.84681133 9.91913204 0 15 C-0.33 15 -0.66 15 -1 15 C-1.22134176 12.87631556 -1.42670007 10.75095976 -1.625 8.625 C-1.74101562 7.44164063 -1.85703125 6.25828125 -1.9765625 5.0390625 C-1.98429687 4.03617187 -1.99203125 3.03328125 -2 2 C-1.34 1.34 -0.68 0.68 0 0 Z " fill="#154470" transform="translate(298,80)"/>
<path d="M0 0 C0.66 0.33 1.32 0.66 2 1 C-0.64 3.64 -3.28 6.28 -6 9 C-6.33 7.68 -6.66 6.36 -7 5 C-4.702779 3.25728062 -2.40133271 1.60088848 0 0 Z " fill="#054D8A" transform="translate(239,350)"/>
<path d="M0 0 C0 0.66 0 1.32 0 2 C1.65 2 3.3 2 5 2 C2 4 2 4 -0.5 3.6875 C-2.34904262 3.17901328 -4.18072387 2.60642538 -6 2 C-6 1.34 -6 0.68 -6 0 C-3.50907189 -1.24546405 -2.58919267 -0.7767578 0 0 Z " fill="#224A77" transform="translate(327,297)"/>
<path d="M0 0 C0.33 0.99 0.66 1.98 1 3 C-1.25 5.5625 -1.25 5.5625 -4 8 C-5.32 7.67 -6.64 7.34 -8 7 C-5.36 4.69 -2.72 2.38 0 0 Z " fill="#1E476F" transform="translate(287,236)"/>
<path d="M0 0 C0 0.99 0 1.98 0 3 C-4.95 2.67 -9.9 2.34 -15 2 C-15 1.67 -15 1.34 -15 1 C-9.9752761 0.37470103 -5.07471573 -0.13012092 0 0 Z " fill="#324E76" transform="translate(112,209)"/>
<path d="M0 0 C1.21065165 3.63195496 0.62784815 5.06531629 -0.4375 8.6875 C-0.86869141 10.17830078 -0.86869141 10.17830078 -1.30859375 11.69921875 C-1.53675781 12.45847656 -1.76492188 13.21773437 -2 14 C-2.33 14 -2.66 14 -3 14 C-3.19263454 9.18413661 -2.81361417 5.48069384 -1 1 C-0.67 0.67 -0.34 0.34 0 0 Z " fill="#13426C" transform="translate(290,127)"/>
<path d="M0 0 C0 0.66 0 1.32 0 2 C-4.95 4.475 -4.95 4.475 -10 7 C-10.66 6.34 -11.32 5.68 -12 5 C-10.37750059 4.16180842 -8.75191503 3.3295884 -7.125 2.5 C-6.22007812 2.0359375 -5.31515625 1.571875 -4.3828125 1.09375 C-2 0 -2 0 0 0 Z " fill="#125B97" transform="translate(217,177)"/>
<path d="M0 0 C0.33 0 0.66 0 1 0 C1.02705729 1.77074917 1.04642195 3.54161711 1.0625 5.3125 C1.07410156 6.29863281 1.08570313 7.28476562 1.09765625 8.30078125 C1 11 1 11 0 14 C-0.66 14 -1.32 14 -2 14 C-1.03644647 4.58997722 -1.03644647 4.58997722 0 0 Z " fill="#17436A" transform="translate(207,371)"/>
<path d="M0 0 C0 3 0 3 -1.1875 4.625 C-3.41406801 6.31412056 -5.25851328 6.62952882 -8 7 C-5.42215154 4.35247996 -3.08351902 2.05567935 0 0 Z " fill="#3BADEE" transform="translate(268,328)"/>
<path d="M0 0 C-0.33 1.32 -0.66 2.64 -1 4 C-2.65 4.33 -4.3 4.66 -6 5 C-6.33 4.01 -6.66 3.02 -7 2 C-2.25 0 -2.25 0 0 0 Z " fill="#17558A" transform="translate(205,183)"/>
<path d="M0 0 C0.66 0.66 1.32 1.32 2 2 C0.35 4.31 -1.3 6.62 -3 9 C-3.66 8.67 -4.32 8.34 -5 8 C-3.35 5.36 -1.7 2.72 0 0 Z " fill="#054E8C" transform="translate(221,371)"/>
<path d="M0 0 C0 0.66 0 1.32 0 2 C-2.8125 4.1875 -2.8125 4.1875 -6 6 C-6.99 5.67 -7.98 5.34 -9 5 C-6.45523312 2.20075644 -3.92372883 0 0 0 Z " fill="#3EA8E9" transform="translate(286,318)"/>
<path d="M0 0 C-3.96 1.98 -3.96 1.98 -8 4 C-8 2.68 -8 1.36 -8 0 C-4.71303767 -0.79953138 -3.28976808 -1.09658936 0 0 Z " fill="#3FAAED" transform="translate(226,172)"/>
<path d="M0 0 C1 2 1 2 0.44140625 3.9453125 C0.15136719 4.66460937 -0.13867188 5.38390625 -0.4375 6.125 C-0.72496094 6.84945312 -1.01242187 7.57390625 -1.30859375 8.3203125 C-1.53675781 8.87460938 -1.76492188 9.42890625 -2 10 C-2.66 8.68 -3.32 7.36 -4 6 C-3.34 6 -2.68 6 -2 6 C-2 4.35 -2 2.7 -2 1 C-1.34 0.67 -0.68 0.34 0 0 Z " fill="#13416F" transform="translate(282,154)"/>
<path d="M0 0 C0.99 0.33 1.98 0.66 3 1 C1.75 3.5 1.75 3.5 0 6 C-1.32 6 -2.64 6 -4 6 C-3.0022242 3.00667261 -2.2477975 2.05233685 0 0 Z " fill="#184A7D" transform="translate(293,232)"/>
<path d="M0 0 C3.3 0 6.6 0 10 0 C6 3 6 3 3 3 C3 2.34 3 1.68 3 1 C2.01 1.33 1.02 1.66 0 2 C0 1.34 0 0.68 0 0 Z " fill="#355485" transform="translate(74,213)"/>
<path d="M0 0 C0.33 1.32 0.66 2.64 1 4 C0.01 4.495 0.01 4.495 -1 5 C-1 4.34 -1 3.68 -1 3 C-2.98 3 -4.96 3 -7 3 C-4.74624683 0.74624683 -3.20799182 0 0 0 Z " fill="#2A4E76" transform="translate(349,201)"/>
<path d="M0 0 C0.66 0.33 1.32 0.66 2 1 C0.8141763 4.37503669 -0.27573689 6.64722731 -3 9 C-3 7.68 -3 6.36 -3 5 C-2.34 5 -1.68 5 -1 5 C-0.67 3.35 -0.34 1.7 0 0 Z " fill="#15436D" transform="translate(260,199)"/>
<path d="M0 0 C0.66 0 1.32 0 2 0 C1.34 2.97 0.68 5.94 0 9 C-0.99 7.68 -1.98 6.36 -3 5 C-1.625 2.5 -1.625 2.5 0 0 Z " fill="#104270" transform="translate(285,142)"/>
<path d="M0 0 C0.66 0.33 1.32 0.66 2 1 C0.68 3.64 -0.64 6.28 -2 9 C-2.33 9 -2.66 9 -3 9 C-3.26218749 5.85375007 -3.24754367 4.38162983 -1.5 1.6875 C-1.005 1.130625 -0.51 0.57375 0 0 Z " fill="#3EAAEE" transform="translate(285,105)"/>
<path d="M0 0 C-1.28813342 0.83878455 -2.58063256 1.67086783 -3.875 2.5 C-4.59429687 2.9640625 -5.31359375 3.428125 -6.0546875 3.90625 C-8 5 -8 5 -10 5 C-9 2 -9 2 -6.125 0.25 C-3 -1 -3 -1 0 0 Z " fill="#244766" transform="translate(192,275)"/>
</svg>
