<?xml version="1.0" encoding="iso-8859-1"?>
<!-- Uploaded to: SVG Repo, www.svgrepo.com, Generator: SVG Repo Mixer Tools -->
<svg fill="#000000" height="800px" width="800px" version="1.1" id="Layer_1" xmlns="http://www.w3.org/2000/svg" xmlns:xlink="http://www.w3.org/1999/xlink" 
	 viewBox="0 0 512 512" xml:space="preserve">
<g>
	<g>
		<path d="M508.939,55.945L456.056,3.061C454.095,1.101,451.438,0,448.666,0c-2.771,0-5.429,1.101-7.389,3.061L337.576,106.762
			l20.892-77.97c0.718-2.677,0.342-5.53-1.044-7.93c-1.386-2.399-3.668-4.152-6.345-4.869l-57.361-15.37
			c-5.578-1.495-11.304,1.815-12.798,7.389L224.038,220.3L3.061,441.276C1.102,443.236,0,445.894,0,448.666
			c0,2.773,1.101,5.43,3.061,7.389l52.884,52.884C57.986,510.98,60.66,512,63.334,512c2.674,0,5.348-1.021,7.389-3.061
			l103.78-103.78l-20.941,78.156c-1.494,5.575,1.814,11.305,7.389,12.799l57.359,15.37c0.89,0.238,1.799,0.356,2.705,0.356
			c1.818,0,3.623-0.475,5.225-1.4c2.4-1.386,4.152-3.668,4.869-6.345l11.909-44.444c0.001-0.004,0.002-0.008,0.003-0.013
			l45.02-168.016l59.838-59.839c1.173-0.776,2.178-1.783,2.955-2.955L508.939,70.723C513.02,66.642,513.02,60.025,508.939,55.945z
			 M287.365,64.71l27.211,47.133l-6.559,24.477l-19.086,19.086l-17.668-30.602L287.365,64.71z M200.916,272.978l54.927-54.926
			v76.209l-54.927,54.927V272.978z M125.09,425.015v-5.723c0-5.772-4.68-10.45-10.45-10.45s-10.45,4.679-10.45,10.45v26.623
			l-40.855,40.855l-38.105-38.105l154.787-154.787v76.21L125.09,425.015z M213.626,488.59l-37.171-9.96l18.046-67.347l27.211,47.131
			L213.626,488.59z M229.362,429.865l-27.694-47.968c-0.478-0.827-1.058-1.554-1.706-2.196l26.934-26.934l15.795,27.357
			L229.362,429.865z M250.34,351.575l-8.144-14.107l16.289-16.289L250.34,351.575z M253.594,190.743l10.019-37.388l10.018,17.352
			L253.594,190.743z M331.669,218.435l-54.926,54.926v-74.761c0-0.459-0.04-0.907-0.097-1.35l55.023-55.023V218.435z
			 M322.226,83.292l-27.211-47.133l3.388-12.643l37.172,9.96L322.226,83.292z M428.398,121.706v-5.721
			c0-5.772-4.68-10.45-10.45-10.45c-5.771,0-10.45,4.679-10.45,10.45v26.622l-54.928,54.928v-75.221c0-0.318-0.02-0.63-0.047-0.94
			l96.143-96.143l38.104,38.105L428.398,121.706z"/>
	</g>
</g>
<g>
	<g>
		<path d="M114.639,374.896c-5.771,0-10.45,4.679-10.45,10.45v0.137c0,5.772,4.68,10.45,10.45,10.45s10.45-4.679,10.45-10.45v-0.137
			C125.089,379.575,120.409,374.896,114.639,374.896z"/>
	</g>
</g>
<g>
	<g>
		<path d="M417.947,71.589c-5.771,0-10.45,4.679-10.45,10.45v0.137c0,5.772,4.68,10.45,10.45,10.45c5.771,0,10.45-4.679,10.45-10.45
			v-0.137C428.397,76.267,423.718,71.589,417.947,71.589z"/>
	</g>
</g>
</svg>