<?xml version="1.0" encoding="iso-8859-1"?>
<!-- Uploaded to: SVG Repo, www.svgrepo.com, Generator: SVG Repo Mixer Tools -->
<svg height="800px" width="800px" version="1.1" id="Capa_1" xmlns="http://www.w3.org/2000/svg" xmlns:xlink="http://www.w3.org/1999/xlink" 
	 viewBox="0 0 295.312 295.312" xml:space="preserve">
<g>
	<g>
		<g>
			<path style="fill:#010002;" d="M42.514,285.267c-5,0-9.696-1.945-13.223-5.484L5.478,255.982C1.945,252.431,0,247.741,0,242.753
				c0-4.923,1.999-9.744,5.478-13.223l38.403-38.397C18.229,143.632,26.72,84.607,65.242,46.073
				c23.235-23.235,54.12-36.034,86.985-36.034c32.854,0,63.744,12.799,86.973,36.034c23.235,23.223,36.022,54.108,36.022,86.967
				c0,32.848-12.793,63.738-36.016,86.973c-23.193,23.193-54.03,35.962-86.824,35.962c-20.413,0-40.443-5.036-58.231-14.607
				l-38.415,38.415C52.21,283.322,47.514,285.267,42.514,285.267z M152.227,21.979c-29.673,0-57.568,11.558-78.548,32.537
				C37.902,90.3,30.813,145.648,56.441,189.123l2.351,3.98L13.915,237.98c-1.259,1.259-1.981,3.001-1.981,4.779
				c0,1.808,0.704,3.508,1.987,4.797l23.814,23.802c2.554,2.572,7.017,2.56,9.553,0.006l44.889-44.877l3.98,2.339
				c16.934,9.971,36.374,15.239,56.226,15.239c29.608,0,57.449-11.534,78.387-32.466c20.974-20.985,32.519-48.875,32.519-78.536
				c0-29.673-11.552-57.556-32.525-78.53C209.783,33.537,181.888,21.979,152.227,21.979z M171.315,228.653L56.512,113.851
				l0.764-3.24c4.153-17.602,13.133-33.689,25.968-46.53c18.426-18.426,42.926-28.575,68.983-28.575
				c26.039,0,50.539,10.15,68.977,28.575c18.426,18.42,28.575,42.914,28.575,68.977s-10.15,50.557-28.575,68.983
				c-12.823,12.817-28.963,21.761-46.655,25.872L171.315,228.653z M69.711,110.169l105.303,105.309
				c14.285-3.89,27.275-11.421,37.746-21.886c16.17-16.176,25.079-37.669,25.079-60.54s-8.903-44.37-25.079-60.534
				c-16.182-16.176-37.681-25.085-60.54-25.085c-22.871,0-44.37,8.909-60.54,25.079C81.197,83.008,73.643,95.968,69.711,110.169z"/>
		</g>
		<g>
			<path style="fill:#010002;" d="M260.173,285.273c-19.38,0-35.145-15.764-35.145-35.139s15.764-35.139,35.145-35.139
				c19.374,0,35.139,15.764,35.139,35.139S279.548,285.273,260.173,285.273z M260.173,226.929
				c-12.799,0-23.211,10.406-23.211,23.205s10.412,23.205,23.211,23.205c12.799,0,23.205-10.406,23.205-23.205
				S272.972,226.929,260.173,226.929z"/>
		</g>
	</g>
</g>
</svg>